<svg xmlns="http://www.w3.org/2000/svg" viewBox="0 0 880 540" role="img" aria-labelledby="title">
  <title id="title">pending_io_ map structure</title>
  <defs>
    <marker id="arrow" viewBox="0 0 10 10" refX="9" refY="5" markerWidth="7" markerHeight="7" orient="auto">
      <path d="M0,0 L10,5 L0,10 z" fill="#444"/>
    </marker>
    <style>
      .group { fill: none; stroke: #888; stroke-dasharray: 5 3; stroke-width: 1; }
      .group-label { font: 600 12px sans-serif; fill: #555; }
      .map   { fill: #e1f5ff; stroke: #555; stroke-width: 1.4; }
      .io    { fill: #fff4e1; stroke: #555; stroke-width: 1.4; }
      .coro  { fill: #f0e1ff; stroke: #555; stroke-width: 1.4; }
      .lock  { fill: #ffe1e1; stroke: #555; stroke-width: 1.4; }
      .label { font: 13px sans-serif; fill: #222; text-anchor: middle; }
      .small { font: 11px sans-serif; fill: #555; text-anchor: middle; }
      .edge  { stroke: #444; stroke-width: 1.4; fill: none; }
      .ptr-edge { stroke: #444; stroke-width: 1.4; fill: none; stroke-dasharray: 4 3; }
      .edge-label { font: 11px sans-serif; fill: #333; text-anchor: middle; }
      .edge-label-bg { fill: white; }
    </style>
  </defs>

  <!-- map column -->
  <rect class="group" x="40" y="60" width="200" height="320" rx="8"/>
  <text class="group-label" x="60" y="80">pending_io_  (unordered_map)</text>
  <rect class="map" x="80" y="110" width="120" height="46" rx="6"/>
  <text class="label" x="140" y="138">fd: 5</text>
  <rect class="map" x="80" y="200" width="120" height="46" rx="6"/>
  <text class="label" x="140" y="228">fd: 7</text>
  <rect class="map" x="80" y="290" width="120" height="46" rx="6"/>
  <text class="label" x="140" y="318">fd: 12</text>

  <!-- map_lock_ -->
  <rect class="lock" x="40" y="410" width="200" height="50" rx="6"/>
  <text class="label" x="140" y="432">map_lock_  (spinlock)</text>
  <text class="small" x="140" y="452">held only during map mutation</text>

  <!-- PendingIO column -->
  <rect class="group" x="320" y="60" width="270" height="320" rx="8"/>
  <text class="group-label" x="340" y="80">PendingIO  (per-fd record)</text>

  <!-- PendingIO 1 (fd 5) -->
  <rect class="io" x="350" y="100" width="220" height="84" rx="6"/>
  <text class="label" x="460" y="118">PendingIO for fd: 5</text>
  <rect x="365" y="126" width="190" height="14" fill="#fff7e0" stroke="#aaa" stroke-width="1"/>
  <text class="small" x="460" y="137">read_handle  (CoroutineHandle)</text>
  <rect x="365" y="144" width="190" height="14" fill="#fff7e0" stroke="#aaa" stroke-width="1"/>
  <text class="small" x="460" y="155">write_handle (CoroutineHandle)</text>
  <rect x="365" y="162" width="190" height="14" fill="#fff7e0" stroke="#aaa" stroke-width="1"/>
  <text class="small" x="460" y="173">generation = 14</text>

  <!-- PendingIO 2 (fd 7) -->
  <rect class="io" x="350" y="200" width="220" height="84" rx="6"/>
  <text class="label" x="460" y="218">PendingIO for fd: 7</text>
  <rect x="365" y="226" width="190" height="14" fill="#fff7e0" stroke="#aaa" stroke-width="1"/>
  <text class="small" x="460" y="237">read_handle  (CoroutineHandle)</text>
  <rect x="365" y="244" width="190" height="14" fill="#fff7e0" stroke="#aaa" stroke-width="1"/>
  <text class="small" x="460" y="255">write_handle (CoroutineHandle)</text>
  <rect x="365" y="262" width="190" height="14" fill="#fff7e0" stroke="#aaa" stroke-width="1"/>
  <text class="small" x="460" y="273">generation = 22</text>

  <!-- PendingIO 3 (fd 12) -->
  <rect class="io" x="350" y="300" width="220" height="84" rx="6"/>
  <text class="label" x="460" y="318">PendingIO for fd: 12</text>
  <rect x="365" y="326" width="190" height="14" fill="#fff7e0" stroke="#aaa" stroke-width="1"/>
  <text class="small" x="460" y="337">read_handle  (CoroutineHandle)</text>
  <rect x="365" y="344" width="190" height="14" fill="#fff7e0" stroke="#aaa" stroke-width="1"/>
  <text class="small" x="460" y="355">write_handle (CoroutineHandle)</text>
  <rect x="365" y="362" width="190" height="14" fill="#fff7e0" stroke="#aaa" stroke-width="1"/>
  <text class="small" x="460" y="373">generation = 33</text>

  <!-- Coroutines column -->
  <rect class="group" x="660" y="60" width="200" height="320" rx="8"/>
  <text class="group-label" x="680" y="80">Suspended coroutines</text>
  <rect class="coro" x="690" y="110" width="140" height="46" rx="6"/>
  <text class="label" x="760" y="138">Coroutine A</text>
  <rect class="coro" x="690" y="200" width="140" height="46" rx="6"/>
  <text class="label" x="760" y="228">Coroutine B</text>
  <rect class="coro" x="690" y="290" width="140" height="46" rx="6"/>
  <text class="label" x="760" y="318">Coroutine C</text>

  <!-- map -> PendingIO edges -->
  <line class="edge" x1="200" y1="133" x2="350" y2="133" marker-end="url(#arrow)"/>
  <line class="edge" x1="200" y1="223" x2="350" y2="223" marker-end="url(#arrow)"/>
  <line class="edge" x1="200" y1="313" x2="350" y2="313" marker-end="url(#arrow)"/>

  <!-- PendingIO read_handle -> coroutine (dashed) -->
  <path class="ptr-edge" d="M570,137 L690,133" marker-end="url(#arrow)"/>
  <rect class="edge-label-bg" x="588" y="125" width="86" height="14"/>
  <text class="edge-label" x="631" y="136">read awaits</text>

  <path class="ptr-edge" d="M570,155 L690,223" marker-end="url(#arrow)"/>
  <rect class="edge-label-bg" x="592" y="180" width="86" height="14"/>
  <text class="edge-label" x="635" y="191">write awaits</text>

  <path class="ptr-edge" d="M570,227 L690,313" marker-end="url(#arrow)"/>
  <rect class="edge-label-bg" x="592" y="265" width="86" height="14"/>
  <text class="edge-label" x="635" y="276">read awaits</text>

  <!-- lock annotation pointing at map -->
  <path class="edge" d="M140,410 L140,380" marker-end="url(#arrow)"/>
  <rect class="edge-label-bg" x="150" y="385" width="84" height="14"/>
  <text class="edge-label" x="192" y="396">guards map</text>

  <!-- Caption -->
  <text class="label" x="450" y="488" style="font-size:12px; fill:#666">
    On every register_io we bump the entry's generation and pack (gen, fd) into the user_data
  </text>
  <text class="label" x="450" y="504" style="font-size:12px; fill:#666">
    token handed to the kernel. On event delivery we re-lock the map, look up by fd, and only
  </text>
  <text class="label" x="450" y="520" style="font-size:12px; fill:#666">
    resume the coroutine if the token's generation matches — defeating the fd-reuse race.
  </text>
</svg>
